<?xml version="1.0" encoding="UTF-8"?>
<svg xmlns="http://www.w3.org/2000/svg" xmlns:xlink="http://www.w3.org/1999/xlink" width="120px" height="120px" viewBox="0 0 120 120" version="1.1">
<g id="surface1">
<path style=" stroke:none;fill-rule:nonzero;fill:rgb(11.372549%,12.54902%,52.941179%);fill-opacity:1;" d="M 31.933594 30.144531 L 49.234375 30.144531 L 40.019531 47.566406 Z M 31.933594 30.144531 "/>
<path style=" stroke:none;fill-rule:nonzero;fill:rgb(11.372549%,12.54902%,52.941179%);fill-opacity:1;" d="M 69.40625 30.144531 L 86.109375 30.144531 L 78.050781 47.359375 Z M 69.40625 30.144531 "/>
<path style=" stroke:none;fill-rule:nonzero;fill:rgb(11.372549%,12.54902%,52.941179%);fill-opacity:1;" d="M 51.046875 71.410156 L 67.160156 71.410156 L 59.023438 88.359375 Z M 51.046875 71.410156 "/>
<path style=" stroke:none;fill-rule:nonzero;fill:rgb(11.372549%,12.54902%,52.941179%);fill-opacity:1;" d="M 52.628906 31.589844 L 59.1875 18.492188 L 65.925781 31.589844 L 62.617188 31.589844 L 59.277344 25.039062 L 55.660156 31.589844 Z M 52.628906 31.589844 "/>
<path style=" stroke:none;fill-rule:nonzero;fill:rgb(11.372549%,12.54902%,52.941179%);fill-opacity:1;" d="M 64.75 35.714844 L 67.863281 35.714844 L 70.527344 40.550781 L 67.300781 40.550781 Z M 64.75 35.714844 "/>
<path style=" stroke:none;fill-rule:nonzero;fill:rgb(11.372549%,12.54902%,52.941179%);fill-opacity:1;" d="M 50.527344 35.714844 L 53.667969 35.714844 L 51.144531 40.550781 L 47.945312 40.550781 Z M 50.527344 35.714844 "/>
<path style=" stroke:none;fill-rule:nonzero;fill:rgb(11.372549%,12.54902%,52.941179%);fill-opacity:1;" d="M 41.085938 95.378906 L 40.246094 90.902344 L 40.675781 90.902344 L 41.160156 93.835938 C 41.210938 94.144531 41.257812 94.449219 41.292969 94.75 C 41.375 94.273438 41.421875 93.996094 41.4375 93.925781 L 42.039062 90.902344 L 42.546875 90.902344 L 43 93.167969 C 43.113281 93.730469 43.195312 94.257812 43.246094 94.75 C 43.285156 94.46875 43.339844 94.144531 43.40625 93.777344 L 43.902344 90.902344 L 44.324219 90.902344 L 43.453125 95.378906 L 43.050781 95.378906 L 42.382812 91.964844 C 42.324219 91.679688 42.292969 91.507812 42.28125 91.441406 C 42.25 91.648438 42.21875 91.820312 42.1875 91.964844 L 41.515625 95.378906 Z M 41.085938 95.378906 "/>
<path style=" stroke:none;fill-rule:nonzero;fill:rgb(11.372549%,12.54902%,52.941179%);fill-opacity:1;" d="M 45.804688 95.378906 L 44.574219 90.902344 L 45.027344 90.902344 L 45.851562 94.152344 C 45.917969 94.414062 45.972656 94.65625 46.019531 94.886719 C 46.066406 94.640625 46.125 94.398438 46.191406 94.152344 L 47.046875 90.902344 L 47.476562 90.902344 L 46.234375 95.378906 Z M 45.804688 95.378906 "/>
<path style=" stroke:none;fill-rule:nonzero;fill:rgb(11.372549%,12.54902%,52.941179%);fill-opacity:1;" d="M 48.269531 93.539062 L 49.34375 93.539062 L 49.015625 92.300781 C 48.914062 91.921875 48.839844 91.613281 48.789062 91.371094 C 48.75 91.65625 48.691406 91.945312 48.617188 92.226562 Z M 47.355469 95.378906 L 48.574219 90.902344 L 49.027344 90.902344 L 50.324219 95.378906 L 49.84375 95.378906 L 49.476562 94.023438 L 48.148438 94.023438 L 47.800781 95.378906 Z M 47.355469 95.378906 "/>
<path style=" stroke:none;fill-rule:nonzero;fill:rgb(11.372549%,12.54902%,52.941179%);fill-opacity:1;" d="M 52.921875 90.902344 L 53.339844 90.902344 L 53.339844 93.488281 C 53.339844 93.9375 53.304688 94.292969 53.230469 94.558594 C 53.160156 94.824219 53.03125 95.039062 52.84375 95.203125 C 52.652344 95.371094 52.40625 95.453125 52.101562 95.453125 C 51.804688 95.453125 51.5625 95.382812 51.371094 95.238281 C 51.183594 95.09375 51.046875 94.882812 50.96875 94.609375 C 50.886719 94.335938 50.847656 93.960938 50.847656 93.488281 L 50.847656 90.902344 L 51.265625 90.902344 L 51.265625 93.484375 C 51.265625 93.871094 51.292969 94.160156 51.34375 94.34375 C 51.394531 94.527344 51.480469 94.671875 51.605469 94.769531 C 51.730469 94.871094 51.882812 94.917969 52.0625 94.917969 C 52.371094 94.917969 52.59375 94.820312 52.722656 94.625 C 52.855469 94.425781 52.921875 94.046875 52.921875 93.484375 Z M 52.921875 90.902344 "/>
<path style=" stroke:none;fill-rule:nonzero;fill:rgb(11.372549%,12.54902%,52.941179%);fill-opacity:1;" d="M 55.027344 95.378906 L 55.027344 91.429688 L 53.984375 91.429688 L 53.984375 90.902344 L 56.496094 90.902344 L 56.496094 91.429688 L 55.445312 91.429688 L 55.445312 95.378906 Z M 55.027344 95.378906 "/>
<path style=" stroke:none;fill-rule:nonzero;fill:rgb(11.372549%,12.54902%,52.941179%);fill-opacity:1;" d="M 57.332031 93.207031 C 57.332031 93.746094 57.4375 94.171875 57.640625 94.480469 C 57.847656 94.792969 58.105469 94.945312 58.414062 94.945312 C 58.730469 94.945312 58.992188 94.789062 59.195312 94.476562 C 59.398438 94.164062 59.5 93.71875 59.5 93.140625 C 59.5 92.777344 59.457031 92.460938 59.371094 92.1875 C 59.28125 91.917969 59.15625 91.707031 58.988281 91.554688 C 58.820312 91.40625 58.628906 91.332031 58.421875 91.332031 C 58.125 91.332031 57.867188 91.476562 57.652344 91.761719 C 57.441406 92.050781 57.332031 92.53125 57.332031 93.207031 M 56.902344 93.195312 C 56.902344 92.453125 57.042969 91.871094 57.324219 91.453125 C 57.605469 91.03125 57.972656 90.820312 58.417969 90.820312 C 58.710938 90.820312 58.976562 90.921875 59.210938 91.117188 C 59.445312 91.316406 59.625 91.589844 59.746094 91.945312 C 59.871094 92.296875 59.933594 92.699219 59.933594 93.144531 C 59.933594 93.597656 59.867188 94.003906 59.738281 94.363281 C 59.609375 94.722656 59.425781 94.992188 59.1875 95.175781 C 58.949219 95.363281 58.691406 95.453125 58.417969 95.453125 C 58.117188 95.453125 57.851562 95.351562 57.617188 95.148438 C 57.382812 94.945312 57.203125 94.667969 57.082031 94.316406 C 56.960938 93.960938 56.902344 93.589844 56.902344 93.195312 "/>
<path style=" stroke:none;fill-rule:nonzero;fill:rgb(11.372549%,12.54902%,52.941179%);fill-opacity:1;" d="M 60.640625 95.378906 L 60.640625 90.902344 L 61.273438 90.902344 L 62.023438 94.070312 C 62.09375 94.367188 62.144531 94.585938 62.175781 94.734375 C 62.210938 94.570312 62.269531 94.332031 62.34375 94.015625 L 63.105469 90.902344 L 63.667969 90.902344 L 63.667969 95.378906 L 63.265625 95.378906 L 63.265625 91.628906 L 62.34375 95.378906 L 61.964844 95.378906 L 61.046875 91.566406 L 61.046875 95.378906 Z M 60.640625 95.378906 "/>
<path style=" stroke:none;fill-rule:nonzero;fill:rgb(11.372549%,12.54902%,52.941179%);fill-opacity:1;" d="M 65.09375 93.539062 L 66.167969 93.539062 L 65.835938 92.300781 C 65.738281 91.921875 65.660156 91.613281 65.613281 91.371094 C 65.570312 91.65625 65.515625 91.945312 65.441406 92.226562 Z M 64.179688 95.378906 L 65.394531 90.902344 L 65.847656 90.902344 L 67.144531 95.378906 L 66.667969 95.378906 L 66.296875 94.023438 L 64.972656 94.023438 L 64.625 95.378906 Z M 64.179688 95.378906 "/>
<path style=" stroke:none;fill-rule:nonzero;fill:rgb(11.372549%,12.54902%,52.941179%);fill-opacity:1;" d="M 68.140625 95.378906 L 68.140625 91.429688 L 67.097656 91.429688 L 67.097656 90.902344 L 69.609375 90.902344 L 69.609375 91.429688 L 68.558594 91.429688 L 68.558594 95.378906 Z M 68.140625 95.378906 "/>
<path style=" stroke:none;fill-rule:nonzero;fill:rgb(11.372549%,12.54902%,52.941179%);fill-opacity:1;" d="M 70.292969 90.902344 L 70.710938 90.902344 L 70.710938 95.378906 L 70.292969 95.378906 Z M 70.292969 90.902344 "/>
<path style=" stroke:none;fill-rule:nonzero;fill:rgb(11.372549%,12.54902%,52.941179%);fill-opacity:1;" d="M 71.9375 93.207031 C 71.9375 93.746094 72.042969 94.171875 72.246094 94.480469 C 72.453125 94.792969 72.710938 94.945312 73.019531 94.945312 C 73.335938 94.945312 73.597656 94.789062 73.800781 94.476562 C 74.003906 94.164062 74.105469 93.71875 74.105469 93.140625 C 74.105469 92.777344 74.0625 92.460938 73.976562 92.1875 C 73.886719 91.917969 73.761719 91.707031 73.59375 91.554688 C 73.425781 91.40625 73.234375 91.332031 73.027344 91.332031 C 72.730469 91.332031 72.472656 91.476562 72.261719 91.761719 C 72.046875 92.050781 71.9375 92.53125 71.9375 93.207031 M 71.507812 93.195312 C 71.507812 92.453125 71.648438 91.871094 71.929688 91.453125 C 72.210938 91.03125 72.578125 90.820312 73.023438 90.820312 C 73.316406 90.820312 73.582031 90.921875 73.816406 91.117188 C 74.050781 91.316406 74.230469 91.589844 74.355469 91.945312 C 74.476562 92.296875 74.539062 92.699219 74.539062 93.144531 C 74.539062 93.597656 74.472656 94.003906 74.34375 94.363281 C 74.214844 94.722656 74.03125 94.992188 73.792969 95.175781 C 73.554688 95.363281 73.296875 95.453125 73.023438 95.453125 C 72.722656 95.453125 72.457031 95.351562 72.222656 95.148438 C 71.988281 94.945312 71.808594 94.667969 71.6875 94.316406 C 71.566406 93.960938 71.507812 93.589844 71.507812 93.195312 "/>
<path style=" stroke:none;fill-rule:nonzero;fill:rgb(11.372549%,12.54902%,52.941179%);fill-opacity:1;" d="M 75.257812 95.378906 L 75.257812 90.902344 L 75.6875 90.902344 L 77.351562 94.414062 L 77.351562 90.902344 L 77.753906 90.902344 L 77.753906 95.378906 L 77.324219 95.378906 L 75.660156 91.859375 L 75.660156 95.378906 Z M 75.257812 95.378906 "/>
<path style=" stroke:none;fill-rule:nonzero;fill:rgb(11.372549%,12.54902%,52.941179%);fill-opacity:1;" d="M 58.105469 33.050781 C 58.03125 32.984375 57.949219 32.953125 57.855469 32.953125 C 57.722656 32.953125 57.609375 33.015625 57.515625 33.144531 C 57.421875 33.269531 57.375 33.484375 57.375 33.78125 C 57.375 34.019531 57.417969 34.207031 57.511719 34.34375 C 57.601562 34.480469 57.714844 34.550781 57.851562 34.550781 C 57.992188 34.550781 58.105469 34.480469 58.195312 34.34375 C 58.289062 34.203125 58.332031 34.007812 58.332031 33.753906 C 58.332031 33.589844 58.3125 33.449219 58.273438 33.332031 C 58.234375 33.210938 58.179688 33.117188 58.105469 33.050781 "/>
<path style=" stroke:none;fill-rule:nonzero;fill:rgb(11.372549%,12.54902%,52.941179%);fill-opacity:1;" d="M 60.484375 32.96875 C 60.464844 33.097656 60.441406 33.222656 60.40625 33.347656 L 60.253906 33.929688 L 60.730469 33.929688 L 60.582031 33.378906 C 60.539062 33.214844 60.503906 33.074219 60.484375 32.96875 "/>
<path style=" stroke:none;fill-rule:nonzero;fill:rgb(11.372549%,12.54902%,52.941179%);fill-opacity:1;" d="M 54.421875 32.96875 C 54.40625 33.097656 54.378906 33.222656 54.347656 33.347656 L 54.195312 33.929688 L 54.667969 33.929688 L 54.523438 33.378906 C 54.476562 33.214844 54.445312 33.074219 54.421875 32.96875 "/>
<path style=" stroke:none;fill-rule:nonzero;fill:rgb(11.372549%,12.54902%,52.941179%);fill-opacity:1;" d="M 64.75 34.742188 L 64.558594 34.742188 L 63.824219 33.183594 L 63.824219 34.742188 L 63.644531 34.742188 L 63.644531 32.761719 L 63.835938 32.761719 L 64.570312 34.316406 L 64.570312 32.761719 L 64.75 32.761719 Z M 63.515625 34.292969 C 63.460938 34.453125 63.378906 34.570312 63.273438 34.652344 C 63.167969 34.734375 63.054688 34.773438 62.933594 34.773438 C 62.800781 34.773438 62.683594 34.730469 62.578125 34.640625 C 62.472656 34.550781 62.394531 34.425781 62.34375 34.269531 C 62.289062 34.117188 62.261719 33.949219 62.261719 33.777344 C 62.261719 33.449219 62.324219 33.191406 62.449219 33.003906 C 62.574219 32.820312 62.734375 32.726562 62.933594 32.726562 C 63.0625 32.726562 63.179688 32.769531 63.285156 32.855469 C 63.386719 32.945312 63.464844 33.066406 63.519531 33.222656 C 63.574219 33.378906 63.601562 33.554688 63.601562 33.753906 C 63.601562 33.953125 63.574219 34.132812 63.515625 34.292969 M 62.1875 34.742188 L 62 34.742188 L 62 32.761719 L 62.1875 32.761719 Z M 61.976562 32.996094 L 61.511719 32.996094 L 61.511719 34.742188 L 61.324219 34.742188 L 61.324219 32.996094 L 60.863281 32.996094 L 60.863281 32.761719 L 61.976562 32.761719 Z M 60.949219 34.742188 L 60.785156 34.140625 L 60.199219 34.140625 L 60.046875 34.742188 L 59.722656 34.742188 L 59.722656 33.082031 L 59.3125 34.742188 L 59.144531 34.742188 L 58.738281 33.054688 L 58.738281 34.742188 L 58.5625 34.742188 L 58.5625 32.761719 L 58.839844 32.761719 L 59.171875 34.164062 C 59.203125 34.292969 59.226562 34.390625 59.238281 34.457031 C 59.253906 34.382812 59.28125 34.277344 59.316406 34.140625 L 59.648438 32.761719 L 59.898438 32.761719 L 59.898438 34.554688 L 60.386719 32.761719 L 60.589844 32.761719 L 61.160156 34.742188 Z M 58.4375 34.292969 C 58.378906 34.453125 58.300781 34.570312 58.195312 34.652344 C 58.089844 34.734375 57.976562 34.773438 57.851562 34.773438 C 57.722656 34.773438 57.601562 34.730469 57.5 34.640625 C 57.394531 34.550781 57.316406 34.425781 57.261719 34.269531 C 57.210938 34.117188 57.183594 33.949219 57.183594 33.777344 C 57.183594 33.449219 57.246094 33.191406 57.371094 33.003906 C 57.496094 32.820312 57.65625 32.726562 57.855469 32.726562 C 57.984375 32.726562 58.101562 32.769531 58.203125 32.855469 C 58.308594 32.945312 58.386719 33.066406 58.441406 33.222656 C 58.496094 33.378906 58.523438 33.554688 58.523438 33.753906 C 58.523438 33.953125 58.496094 34.132812 58.4375 34.292969 M 56.816406 34.742188 L 56.628906 34.742188 L 56.628906 32.996094 L 56.167969 32.996094 L 56.167969 32.761719 L 57.28125 32.761719 L 57.28125 32.996094 L 56.816406 32.996094 Z M 56.160156 33.90625 C 56.160156 34.105469 56.144531 34.261719 56.113281 34.378906 C 56.082031 34.496094 56.023438 34.589844 55.941406 34.664062 C 55.855469 34.738281 55.746094 34.773438 55.613281 34.773438 C 55.480469 34.773438 55.375 34.742188 55.289062 34.679688 C 55.207031 34.613281 55.144531 34.523438 55.109375 34.402344 C 55.074219 34.28125 55.058594 34.113281 55.058594 33.90625 L 55.058594 32.761719 L 55.242188 32.761719 L 55.242188 33.902344 C 55.242188 34.074219 55.253906 34.203125 55.277344 34.285156 C 55.300781 34.367188 55.339844 34.429688 55.394531 34.472656 C 55.449219 34.515625 55.515625 34.539062 55.597656 34.539062 C 55.730469 34.539062 55.828125 34.496094 55.886719 34.40625 C 55.945312 34.320312 55.976562 34.152344 55.976562 33.902344 L 55.976562 32.761719 L 56.160156 32.761719 Z M 54.890625 34.742188 L 54.726562 34.140625 L 54.140625 34.140625 L 53.984375 34.742188 L 53.789062 34.742188 L 54.328125 32.761719 L 54.527344 32.761719 L 55.101562 34.742188 Z M 66.320312 32.144531 L 52.238281 32.144531 L 50.835938 35 L 67.722656 35 Z M 66.320312 32.144531 "/>
<path style=" stroke:none;fill-rule:nonzero;fill:rgb(11.372549%,12.54902%,52.941179%);fill-opacity:1;" d="M 63.183594 33.050781 C 63.109375 32.984375 63.027344 32.953125 62.933594 32.953125 C 62.804688 32.953125 62.691406 33.015625 62.59375 33.144531 C 62.5 33.269531 62.453125 33.484375 62.453125 33.78125 C 62.453125 34.019531 62.5 34.207031 62.589844 34.34375 C 62.679688 34.480469 62.792969 34.550781 62.929688 34.550781 C 63.070312 34.550781 63.1875 34.480469 63.277344 34.34375 C 63.367188 34.203125 63.410156 34.007812 63.410156 33.753906 C 63.410156 33.589844 63.390625 33.449219 63.355469 33.332031 C 63.316406 33.210938 63.257812 33.117188 63.183594 33.050781 "/>
<path style=" stroke:none;fill-rule:nonzero;fill:rgb(11.372549%,12.54902%,52.941179%);fill-opacity:1;" d="M 60.894531 65.929688 L 61.363281 65.929688 L 61.125 64.746094 Z M 60.894531 65.929688 "/>
<path style=" stroke:none;fill-rule:nonzero;fill:rgb(11.372549%,12.54902%,52.941179%);fill-opacity:1;" d="M 75.304688 65.855469 L 75.304688 67.191406 L 74.957031 67.191406 L 74.957031 65.851562 L 74.332031 64.003906 L 74.734375 64.003906 L 75.140625 65.265625 L 75.535156 64.003906 L 75.933594 64.003906 Z M 72.089844 67.191406 L 70.785156 67.191406 L 70.785156 64.003906 L 72.054688 64.003906 L 72.054688 64.542969 L 71.128906 64.542969 L 71.128906 65.25 L 71.992188 65.25 L 71.992188 65.785156 L 71.128906 65.785156 L 71.128906 66.65625 L 72.089844 66.65625 Z M 68.558594 67.191406 L 67.355469 67.191406 L 67.355469 64.03125 L 67.699219 64.03125 L 67.699219 66.65625 L 68.558594 66.65625 Z M 65.316406 67.191406 L 64.109375 67.191406 L 64.109375 64.03125 L 64.457031 64.03125 L 64.457031 66.65625 L 65.316406 66.65625 Z M 61.625 67.191406 L 61.472656 66.46875 L 60.789062 66.46875 L 60.648438 67.191406 L 60.28125 67.191406 L 60.949219 64.003906 L 61.3125 64.003906 L 62 67.191406 Z M 57.824219 67.191406 L 57.453125 67.191406 L 56.839844 64.003906 L 57.21875 64.003906 L 57.652344 66.363281 L 58.070312 64.003906 L 58.4375 64.003906 Z M 50.996094 64.542969 L 50.5625 64.542969 L 50.5625 67.191406 L 50.265625 67.191406 L 50.265625 64.542969 L 49.832031 64.542969 L 49.832031 64.003906 L 50.996094 64.003906 Z M 47.339844 67.191406 L 47.046875 67.191406 L 47.046875 64.003906 L 47.339844 64.003906 Z M 44.007812 67.191406 L 43.691406 67.191406 L 43.398438 64.808594 L 43.109375 67.191406 L 42.789062 67.191406 L 42.4375 64.003906 L 42.742188 64.003906 L 42.960938 66.195312 L 43.230469 64.003906 L 43.582031 64.003906 L 43.839844 66.230469 L 44.0625 64.003906 L 44.363281 64.003906 Z M 72.503906 44 L 69.140625 44 L 65.695312 56.230469 L 62.40625 44 L 58.410156 44 L 57.820312 48.519531 L 60.933594 48.519531 L 65.941406 62.492188 L 70.824219 47.359375 L 79.28125 63.679688 L 39.179688 63.679688 L 47.300781 48.042969 L 50.289062 62.492188 L 53.65625 49.46875 L 57.734375 62.136719 L 59.925781 49.945312 L 57.652344 49.945312 L 57.148438 54.582031 L 54.707031 43.761719 L 54.492188 43.527344 C 54.089844 43.085938 53.511719 43.148438 53.160156 43.671875 L 52.980469 43.941406 L 50.371094 53.988281 L 49.238281 44 L 46.25 44 L 33.878906 67.429688 L 84.5 67.429688 Z M 72.503906 44 "/>
</g>
</svg>
